# xmcd
#
# Track frame offsets: 
#        150
#        16617
#        30120
#        52800
#        69400
#        85475
#        104895
#        120347
#        140545
#        162750
#        177627
#        204325
#        216552
#        231962
#
# Disc length: 3260 seconds
#
# Revision: 2
# Processed by: cddbd v1.5PL3 Copyright (c) Steve Scherf et al.
# Submitted via: ExactAudioCopy v0.95a4
#
DISCID=bb0cba0e
DTITLE=Billy Boy Arnold - Back Where I Belong
DYEAR=1993
DGENRE=Blues
TTITLE0=I Wish You Would
TTITLE1=Move On Down The Road
TTITLE2=Fine Young Girl
TTITLE3=You Got Me Wrong
TTITLE4=Fool For You
TTITLE5=Wandering Eye
TTITLE6=Shake Your Hips
TTITLE7=Whiskey, Beer And Reefer
TTITLE8=Prisoner's Plea
TTITLE9=High Fashion Woman
TTITLE10=Young And Evil
TTITLE11=Shake The Boogie
TTITLE12=Worried Life Blues
TTITLE13=Streetwise Advisors
EXTD=
EXTT0=
EXTT1=
EXTT2=
EXTT3=
EXTT4=
EXTT5=
EXTT6=
EXTT7=
EXTT8=
EXTT9=
EXTT10=
EXTT11=
EXTT12=
EXTT13=
PLAYORDER=
